<?xml version="1.0" encoding="UTF-8"?>
<svg width="160px" height="154px" viewBox="0 0 160 154" version="1.1" xmlns="http://www.w3.org/2000/svg" xmlns:xlink="http://www.w3.org/1999/xlink">
    <!-- Generator: Sketch 42 (36781) - http://www.bohemiancoding.com/sketch -->
    <title>LocalRepsIcon</title>
    <desc>Created with Sketch.</desc>
    <defs>
        <filter x="-50%" y="-50%" width="200%" height="200%" filterUnits="objectBoundingBox" id="filter-1">
            <feOffset dx="0" dy="4" in="SourceAlpha" result="shadowOffsetOuter1"></feOffset>
            <feGaussianBlur stdDeviation="2.5" in="shadowOffsetOuter1" result="shadowBlurOuter1"></feGaussianBlur>
            <feColorMatrix values="0 0 0 0 0.960784314   0 0 0 0 0.415686275   0 0 0 0 0  0 0 0 0.880774457 0" type="matrix" in="shadowBlurOuter1" result="shadowMatrixOuter1"></feColorMatrix>
            <feMerge>
                <feMergeNode in="shadowMatrixOuter1"></feMergeNode>
                <feMergeNode in="SourceGraphic"></feMergeNode>
            </feMerge>
        </filter>
    </defs>
    <g id="Dev-eye" stroke="none" stroke-width="1" fill="none" fill-rule="evenodd">
        <g id="LocalRepsIcon" filter="url(#filter-1)" transform="translate(5.000000, 3.000000)">
            <path d="M75,144.073351 C116.421356,144.073351 150,120.316276 150,84.2229094 C150,62.0388444 133.334275,-2.12707072 123.950771,0.0542796549 C114.23794,2.31218742 106.758152,24.2052002 100.129267,22.1394319 C91.6626665,19.5009742 83.9529099,18.8700883 75,18.8700883 C65.6709397,18.8700883 56.7397056,20.3542916 48.5003204,23.0664956 C40.1213791,25.824638 30.6429326,8.65318748 24.0041764,13.6817907 C17.3654203,18.710394 0,64.5253749 0,84.2229094 C0,120.316276 33.5786438,144.073351 75,144.073351 Z" id="iconBase-Copy" stroke="#FFFFFF" stroke-width="1.5" fill="#3B3B3B"></path>
            <text id="Lr" font-family="ArialRoundedMTBold, Arial Rounded MT Bold" font-size="36" font-weight="normal" fill="#FFFFFF">
                <tspan x="36.1816406" y="80">LR</tspan>
            </text>
        </g>
    </g>
</svg>